<?xml version="1.0" encoding="UTF-8"?><!DOCTYPE svg PUBLIC "-//W3C//DTD SVG 1.1//EN" "http://www.w3.org/Graphics/SVG/1.1/DTD/svg11.dtd"><svg xmlns="http://www.w3.org/2000/svg" xmlns:xlink="http://www.w3.org/1999/xlink" version="1.1" id="Layer_1" x="0px" y="0px" width="64px" height="64px" viewBox="0 0 64 64" xml:space="preserve"><path d="M32 64c7.747 0 15.029-3.017 20.506-8.496C57.984 50.028 61 42.746 61 35s-3.017-15.028-8.495-20.504C47.266 9.253 40.371 6.273 33 6.024V2h5V0H26v2h5v4.024c-7.371.248-14.266 3.229-19.506 8.471C6.017 19.971 3 27.253 3 35s3.017 15.028 8.494 20.504C16.971 60.983 24.253 64 32 64zM12.908 15.909C17.771 11.045 24.163 8.271 31 8.024V11h2V8.024a26.803 26.803 0 0 1 18.092 7.885c4.863 4.862 7.637 11.254 7.884 18.091H56v2h2.976a26.801 26.801 0 0 1-7.884 18.09C46.229 58.954 39.837 61.728 33 61.976V59h-2v2.976a26.8 26.8 0 0 1-18.092-7.886A26.801 26.801 0 0 1 5.024 36H8v-2H5.024c.247-6.837 3.021-13.229 7.884-18.091z"/><path transform="matrix(0.7072 0.707 -0.707 0.7072 18.0964 -5.7403)" d="M13.979 17.98h4v2h-4z"/><path transform="matrix(0.7071 0.7071 -0.7071 0.7071 50.1423 -19.0123)" d="M46.021 50.021h4.001v2h-4.001z"/><path transform="matrix(0.7071 0.7071 -0.7071 0.7071 27.4857 -28.3974)" d="M47.022 16.98h2v4h-2z"/><path transform="matrix(0.7071 0.7071 -0.7071 0.7071 40.7576 3.6445)" d="M14.98 49.02h2v4.002h-2z"/><path d="M32 39c2.206 0 4-1.794 4-4 0-1.858-1.28-3.411-3-3.858V21h-2v10.142c-1.72.447-3 2-3 3.858 0 2.206 1.794 4 4 4zm0-6c1.103 0 2 .897 2 2s-.897 2-2 2-2-.897-2-2 .897-2 2-2z"/><metadata><rdf:RDF xmlns:rdf="http://www.w3.org/1999/02/22-rdf-syntax-ns#" xmlns:rdfs="http://www.w3.org/2000/01/rdf-schema#" xmlns:dc="http://purl.org/dc/elements/1.1/"><rdf:Description about="https://iconscout.com/legal#licenses" dc:title="basic,chronometer" dc:description="basic,chronometer" dc:publisher="Iconscout" dc:date="2017-09-21" dc:format="image/svg+xml" dc:language="en"><dc:creator><rdf:Bag><rdf:li>Dario Ferrando</rdf:li></rdf:Bag></dc:creator></rdf:Description></rdf:RDF></metadata></svg>